<svg width="167" height="91" viewBox="0 0 167 91" fill="none" xmlns="http://www.w3.org/2000/svg">
<path d="M0.0662502 3.87H16.3763C20.7629 3.87 23.9363 4.94333 25.8963 7.09C27.9029 9.23667 28.9063 12.7367 28.9063 17.59V20.25C28.9063 25.99 26.8529 29.42 22.7463 30.54C25.2663 31.1933 27.0396 32.71 28.0663 35.09C29.0929 37.47 29.6063 40.62 29.6063 44.54C29.6063 50.9333 28.6496 55.7867 26.7363 59.1C24.8229 62.3667 21.3696 64 16.3763 64H0.0662502V3.87ZM14.2763 26.48C15.3029 26.48 16.0029 26.1067 16.3763 25.36C16.7496 24.5667 16.9363 23.47 16.9363 22.07V16.05C16.9363 14.09 16.0729 13.11 14.3463 13.11H11.8263V26.48H14.2763ZM13.0163 53.43C16.1429 53.43 17.7063 51.9367 17.7063 48.95V41.46C17.7063 39.64 17.4263 38.2633 16.8663 37.33C16.3529 36.3967 15.4196 35.93 14.0663 35.93H11.8263V53.36L13.0163 53.43ZM33.2823 9.33V0.789996H45.5323V9.33H33.2823ZM33.2823 64V12.76H45.5323V64H33.2823ZM50.3738 12.76H62.6238V19.27C63.1372 17.17 64.0238 15.4667 65.2838 14.16C66.5438 12.8533 68.2238 12.2 70.3238 12.2C73.7772 12.2 76.3205 13.2733 77.9538 15.42C79.6338 17.52 80.4738 20.53 80.4738 24.45V64H68.4338V25.71C68.4338 24.59 68.2005 23.6333 67.7338 22.84C67.3138 22.0467 66.6372 21.65 65.7038 21.65C64.4438 21.65 63.6038 22.2333 63.1838 23.4C62.8105 24.52 62.6238 26.0367 62.6238 27.95V64H50.3738V12.76ZM100.312 64L106.122 3.87H126.492L132.232 64H120.822L119.982 54.27H112.702L112.002 64H100.312ZM113.612 44.68H119.072L116.412 14.09H115.852L113.612 44.68ZM135.686 64V3.52H148.146V64H135.686ZM152.98 9.33V0.789996H165.23V9.33H152.98ZM152.98 64V12.76H165.23V64H152.98Z" fill="#1F2B76"/>
<path d="M0.604749 87V68.102H6.36875L7.95275 79.63L9.53675 68.102H15.3447V87H11.8907V73.382L9.71275 87H6.32475L4.01475 73.382V87H0.604749ZM22.5628 87.176C20.9055 87.176 19.7175 86.7213 18.9988 85.812C18.2801 84.9027 17.9208 83.546 17.9208 81.742V75.274C17.9208 73.7927 18.3461 72.6633 19.1968 71.886C20.0475 71.1087 21.2355 70.72 22.7608 70.72C25.8555 70.72 27.4028 72.238 27.4028 75.274V76.44C27.4028 77.6133 27.3881 78.5667 27.3588 79.3H21.7708V82.424C21.7708 82.9813 21.8295 83.4213 21.9468 83.744C22.0641 84.052 22.3135 84.206 22.6948 84.206C22.9881 84.206 23.1935 84.118 23.3108 83.942C23.4428 83.766 23.5161 83.568 23.5308 83.348C23.5601 83.1133 23.5748 82.776 23.5748 82.336V80.774H27.4028V81.698C27.4028 83.5753 27.0361 84.9613 26.3028 85.856C25.5841 86.736 24.3375 87.176 22.5628 87.176ZM23.5748 77.386V75.318C23.5748 74.1593 23.2888 73.58 22.7168 73.58C22.0715 73.58 21.7488 74.1593 21.7488 75.318V77.386H23.5748ZM33.063 87.176C32.1243 87.176 31.413 86.956 30.929 86.516C30.4597 86.0613 30.1443 85.4673 29.983 84.734C29.8363 83.986 29.763 83.0327 29.763 81.874L29.807 74.614C29.807 73.47 30.093 72.5387 30.665 71.82C31.2517 71.0867 32.073 70.72 33.129 70.72C34.1703 70.72 34.9477 71.0647 35.461 71.754V67.992H39.311V87H35.461V85.284C35.241 85.9147 34.9403 86.3913 34.559 86.714C34.1923 87.022 33.6937 87.176 33.063 87.176ZM34.537 84.162C34.9183 84.162 35.1677 83.9787 35.285 83.612C35.4023 83.2307 35.461 82.7247 35.461 82.094V81.412V75.362C35.461 74.8927 35.395 74.4967 35.263 74.174C35.131 73.8513 34.8963 73.69 34.559 73.69C34.1777 73.69 33.921 73.844 33.789 74.152C33.6717 74.4453 33.613 74.8487 33.613 75.362V82.138C33.613 83.4873 33.921 84.162 34.537 84.162ZM41.93 69.818V67.134H45.78V69.818H41.93ZM41.93 87V70.896H45.78V87H41.93ZM53.2416 87.176C51.4816 87.176 50.213 86.7287 49.4356 85.834C48.6583 84.9393 48.2696 83.568 48.2696 81.72V76.748C48.2696 75.3547 48.4163 74.2253 48.7096 73.36C49.0176 72.48 49.5236 71.82 50.2276 71.38C50.9463 70.94 51.9363 70.72 53.1976 70.72C54.5763 70.72 55.6983 71.0793 56.5636 71.798C57.429 72.5167 57.8616 73.5213 57.8616 74.812V77.276H53.9456V75.01C53.9456 74.5847 53.887 74.262 53.7696 74.042C53.6523 73.8073 53.425 73.69 53.0876 73.69C52.457 73.69 52.1416 74.1373 52.1416 75.032V82.842C52.1416 83.2087 52.215 83.524 52.3616 83.788C52.523 84.0373 52.7576 84.162 53.0656 84.162C53.3736 84.162 53.601 84.0373 53.7476 83.788C53.909 83.5387 53.9823 83.216 53.9676 82.82L53.9456 80.114H57.8616V82.93C57.8616 84.25 57.429 85.2913 56.5636 86.054C55.713 86.802 54.6056 87.176 53.2416 87.176ZM63.2343 87.176C61.9876 87.176 61.1296 86.7653 60.6603 85.944C60.2056 85.108 59.9783 83.92 59.9783 82.38C59.9783 81.1187 60.1396 80.1507 60.4623 79.476C60.7996 78.8013 61.2616 78.31 61.8483 78.002C62.435 77.6793 63.3296 77.3273 64.5323 76.946L65.5883 76.594V76.55V74.944C65.5883 74.5187 65.5003 74.196 65.3243 73.976C65.163 73.7413 64.965 73.624 64.7303 73.624C64.525 73.624 64.3416 73.7193 64.1803 73.91C64.0336 74.1007 63.9603 74.3573 63.9603 74.68V75.648H60.2203V75.12C60.2203 73.536 60.587 72.4067 61.3203 71.732C62.0683 71.0573 63.2783 70.72 64.9503 70.72C66.285 70.72 67.3703 71.072 68.2063 71.776C69.0423 72.4653 69.4603 73.448 69.4603 74.724V87H65.6323V85.086C65.4416 85.746 65.1336 86.2593 64.7083 86.626C64.2976 86.9927 63.8063 87.176 63.2343 87.176ZM64.7523 84.184C65.0456 84.184 65.251 84.0667 65.3683 83.832C65.5003 83.5827 65.5663 83.282 65.5663 82.93V78.442C64.9943 78.662 64.569 78.9407 64.2903 79.278C64.0263 79.6153 63.8943 80.0847 63.8943 80.686V82.754C63.8943 83.7073 64.1803 84.184 64.7523 84.184ZM72.043 87V67.992H75.959V87H72.043ZM89.4103 87.176C87.6943 87.176 86.455 86.7507 85.6923 85.9C84.9297 85.0493 84.5483 83.678 84.5483 81.786V79.938H88.2663V82.292C88.2663 83.2307 88.567 83.7 89.1683 83.7C89.5057 83.7 89.7403 83.6047 89.8723 83.414C90.0043 83.2087 90.0703 82.8713 90.0703 82.402C90.0703 81.786 89.997 81.28 89.8503 80.884C89.7037 80.4733 89.513 80.136 89.2783 79.872C89.0583 79.5933 88.655 79.168 88.0683 78.596L86.4403 76.968C85.179 75.736 84.5483 74.372 84.5483 72.876C84.5483 71.2627 84.915 70.038 85.6483 69.202C86.3963 68.3513 87.4817 67.926 88.9043 67.926C90.6057 67.926 91.8303 68.3807 92.5783 69.29C93.3263 70.1847 93.7003 71.5927 93.7003 73.514H89.8503L89.8283 72.216C89.8283 71.9667 89.755 71.7687 89.6083 71.622C89.4763 71.4753 89.2857 71.402 89.0363 71.402C88.743 71.402 88.523 71.4827 88.3763 71.644C88.2297 71.8053 88.1563 72.0253 88.1563 72.304C88.1563 72.92 88.5083 73.558 89.2123 74.218L91.4123 76.33C91.9257 76.8287 92.351 77.3053 92.6883 77.76C93.0257 78.2 93.297 78.728 93.5023 79.344C93.7077 79.9453 93.8103 80.664 93.8103 81.5C93.8103 83.3627 93.4657 84.778 92.7763 85.746C92.1017 86.6993 90.9797 87.176 89.4103 87.176ZM99.199 87.176C97.9963 87.176 97.1676 86.8167 96.713 86.098C96.273 85.3793 96.053 84.3087 96.053 82.886V70.896H99.925V82.116C99.925 82.2187 99.925 82.4973 99.925 82.952C99.925 83.392 99.991 83.7073 100.123 83.898C100.27 84.074 100.49 84.162 100.783 84.162C101.179 84.162 101.428 84.0007 101.531 83.678C101.634 83.3407 101.685 82.864 101.685 82.248V82.116L101.707 70.896H105.535V87H101.685V85.284C101.421 85.9587 101.113 86.4427 100.761 86.736C100.409 87.0293 99.8883 87.176 99.199 87.176ZM108.175 70.896H112.091V71.754C112.649 71.0647 113.419 70.72 114.401 70.72C115.648 70.72 116.513 71.138 116.997 71.974C117.496 72.81 117.745 73.9687 117.745 75.45V81.412C117.745 82.6733 117.672 83.7073 117.525 84.514C117.379 85.306 117.056 85.9513 116.557 86.45C116.059 86.934 115.303 87.176 114.291 87.176C113.323 87.176 112.59 86.9047 112.091 86.362V90.212H108.175V70.896ZM113.015 84.184C113.367 84.184 113.595 84.0227 113.697 83.7C113.8 83.3773 113.851 82.908 113.851 82.292V75.45C113.851 74.8927 113.8 74.4673 113.697 74.174C113.595 73.8807 113.36 73.734 112.993 73.734C112.392 73.734 112.091 74.2913 112.091 75.406V82.468C112.091 83.0107 112.15 83.436 112.267 83.744C112.399 84.0373 112.649 84.184 113.015 84.184ZM120.275 70.896H124.191V71.754C124.749 71.0647 125.519 70.72 126.501 70.72C127.748 70.72 128.613 71.138 129.097 71.974C129.596 72.81 129.845 73.9687 129.845 75.45V81.412C129.845 82.6733 129.772 83.7073 129.625 84.514C129.479 85.306 129.156 85.9513 128.657 86.45C128.159 86.934 127.403 87.176 126.391 87.176C125.423 87.176 124.69 86.9047 124.191 86.362V90.212H120.275V70.896ZM125.115 84.184C125.467 84.184 125.695 84.0227 125.797 83.7C125.9 83.3773 125.951 82.908 125.951 82.292V75.45C125.951 74.8927 125.9 74.4673 125.797 74.174C125.695 73.8807 125.46 73.734 125.093 73.734C124.492 73.734 124.191 74.2913 124.191 75.406V82.468C124.191 83.0107 124.25 83.436 124.367 83.744C124.499 84.0373 124.749 84.184 125.115 84.184ZM132.375 87V67.992H136.291V87H132.375ZM138.911 69.818V67.134H142.761V69.818H138.911ZM138.911 87V70.896H142.761V87H138.911ZM149.892 87.176C148.235 87.176 147.047 86.7213 146.328 85.812C145.609 84.9027 145.25 83.546 145.25 81.742V75.274C145.25 73.7927 145.675 72.6633 146.526 71.886C147.377 71.1087 148.565 70.72 150.09 70.72C153.185 70.72 154.732 72.238 154.732 75.274V76.44C154.732 77.6133 154.717 78.5667 154.688 79.3H149.1V82.424C149.1 82.9813 149.159 83.4213 149.276 83.744C149.393 84.052 149.643 84.206 150.024 84.206C150.317 84.206 150.523 84.118 150.64 83.942C150.772 83.766 150.845 83.568 150.86 83.348C150.889 83.1133 150.904 82.776 150.904 82.336V80.774H154.732V81.698C154.732 83.5753 154.365 84.9613 153.632 85.856C152.913 86.736 151.667 87.176 149.892 87.176ZM150.904 77.386V75.318C150.904 74.1593 150.618 73.58 150.046 73.58C149.401 73.58 149.078 74.1593 149.078 75.318V77.386H150.904ZM161.646 87.176C158.464 87.176 156.872 85.5627 156.872 82.336L156.894 81.06H160.744L160.766 82.952C160.766 83.3333 160.84 83.6267 160.986 83.832C161.133 84.0227 161.375 84.118 161.712 84.118C162.226 84.118 162.482 83.7 162.482 82.864C162.482 82.248 162.358 81.764 162.108 81.412C161.874 81.06 161.492 80.686 160.964 80.29L158.918 78.706C158.214 78.1633 157.708 77.606 157.4 77.034C157.092 76.4473 156.938 75.626 156.938 74.57C156.938 73.7487 157.151 73.052 157.576 72.48C158.016 71.8933 158.596 71.4533 159.314 71.16C160.033 70.8667 160.832 70.72 161.712 70.72C164.836 70.72 166.398 72.2747 166.398 75.384V75.692H162.416V75.076C162.416 74.6947 162.35 74.372 162.218 74.108C162.101 73.8293 161.896 73.69 161.602 73.69C161.338 73.69 161.133 73.7707 160.986 73.932C160.854 74.0787 160.788 74.284 160.788 74.548C160.788 75.1347 161.016 75.5893 161.47 75.912L163.846 77.65C164.697 78.2807 165.35 78.97 165.804 79.718C166.259 80.4513 166.486 81.3827 166.486 82.512C166.486 84.008 166.061 85.1593 165.21 85.966C164.36 86.7727 163.172 87.176 161.646 87.176Z" fill="#007DDF"/>
</svg>
